<svg xmlns="http://www.w3.org/2000/svg" viewBox="0 0 1200 920">
  <defs>
    <!-- Gradients -->
    <linearGradient id="headerClient" x1="0" y1="0" x2="1" y2="0">
      <stop offset="0%" stop-color="#1e40af"/>
      <stop offset="100%" stop-color="#2563eb"/>
    </linearGradient>
    <linearGradient id="headerServer" x1="0" y1="0" x2="1" y2="0">
      <stop offset="0%" stop-color="#15803d"/>
      <stop offset="100%" stop-color="#16a34a"/>
    </linearGradient>
    <linearGradient id="headerData" x1="0" y1="0" x2="1" y2="0">
      <stop offset="0%" stop-color="#b45309"/>
      <stop offset="100%" stop-color="#d97706"/>
    </linearGradient>
    <linearGradient id="headerExt" x1="0" y1="0" x2="1" y2="0">
      <stop offset="0%" stop-color="#6d28d9"/>
      <stop offset="100%" stop-color="#7c3aed"/>
    </linearGradient>
    <linearGradient id="bgGrad" x1="0" y1="0" x2="0" y2="1">
      <stop offset="0%" stop-color="#f8fafc"/>
      <stop offset="100%" stop-color="#f1f5f9"/>
    </linearGradient>
    <!-- Shadow filter -->
    <filter id="shadow" x="-4%" y="-4%" width="108%" height="112%">
      <feDropShadow dx="0" dy="2" stdDeviation="4" flood-color="#0a2240" flood-opacity="0.12"/>
    </filter>
    <filter id="shadowSm" x="-4%" y="-4%" width="108%" height="112%">
      <feDropShadow dx="0" dy="1" stdDeviation="2" flood-color="#0a2240" flood-opacity="0.08"/>
    </filter>
    <!-- Arrow marker -->
    <marker id="arrowBlue" markerWidth="10" markerHeight="7" refX="10" refY="3.5" orient="auto">
      <polygon points="0 0, 10 3.5, 0 7" fill="#2563eb"/>
    </marker>
    <marker id="arrowGreen" markerWidth="10" markerHeight="7" refX="10" refY="3.5" orient="auto">
      <polygon points="0 0, 10 3.5, 0 7" fill="#16a34a"/>
    </marker>
    <marker id="arrowOrange" markerWidth="10" markerHeight="7" refX="10" refY="3.5" orient="auto">
      <polygon points="0 0, 10 3.5, 0 7" fill="#d97706"/>
    </marker>
    <marker id="arrowPurple" markerWidth="10" markerHeight="7" refX="10" refY="3.5" orient="auto">
      <polygon points="0 0, 10 3.5, 0 7" fill="#7c3aed"/>
    </marker>
  </defs>

  <!-- Background -->
  <rect width="1200" height="920" rx="12" fill="url(#bgGrad)"/>

  <!-- Title -->
  <text x="600" y="42" text-anchor="middle" font-family="'Segoe UI', sans-serif" font-size="22" font-weight="700" fill="#0a2240">SPIN Selling AI 교육 플랫폼 아키텍처</text>
  <text x="600" y="62" text-anchor="middle" font-family="'Segoe UI', sans-serif" font-size="12" fill="#64748b">Vanilla HTML/CSS/JS + Supabase + Gemini API</text>

  <!-- ============================================================ -->
  <!-- LAYER 1: CLIENT (Browser) -->
  <!-- ============================================================ -->
  <g filter="url(#shadow)">
    <rect x="30" y="80" width="760" height="310" rx="10" fill="#ffffff" stroke="#bfdbfe" stroke-width="1"/>
    <rect x="30" y="80" width="760" height="36" rx="10" fill="url(#headerClient)"/>
    <rect x="30" y="106" width="760" height="10" fill="url(#headerClient)"/>
    <text x="56" y="104" font-family="'Segoe UI', sans-serif" font-size="14" font-weight="600" fill="#ffffff">클라이언트 계층 &#8212; 브라우저 (25개 HTML 페이지)</text>
  </g>

  <!-- Roles -->
  <g filter="url(#shadowSm)">
    <rect x="50" y="128" width="155" height="70" rx="8" fill="#eff6ff" stroke="#93c5fd" stroke-width="1"/>
    <text x="127" y="152" text-anchor="middle" font-family="'Segoe UI', sans-serif" font-size="11" font-weight="600" fill="#1e40af">시스템관리자</text>
    <text x="127" y="168" text-anchor="middle" font-family="'Segoe UI', sans-serif" font-size="10" fill="#3b82f6">(admin)</text>
    <text x="127" y="186" text-anchor="middle" font-family="'Segoe UI', sans-serif" font-size="9" fill="#64748b">세션 생성/관리</text>
  </g>
  <g filter="url(#shadowSm)">
    <rect x="215" y="128" width="155" height="70" rx="8" fill="#eff6ff" stroke="#93c5fd" stroke-width="1"/>
    <text x="292" y="152" text-anchor="middle" font-family="'Segoe UI', sans-serif" font-size="11" font-weight="600" fill="#1e40af">강사</text>
    <text x="292" y="168" text-anchor="middle" font-family="'Segoe UI', sans-serif" font-size="10" fill="#3b82f6">(trainer)</text>
    <text x="292" y="186" text-anchor="middle" font-family="'Segoe UI', sans-serif" font-size="9" fill="#64748b">교육 진행, 대시보드</text>
  </g>
  <g filter="url(#shadowSm)">
    <rect x="380" y="128" width="155" height="70" rx="8" fill="#eff6ff" stroke="#93c5fd" stroke-width="1"/>
    <text x="457" y="152" text-anchor="middle" font-family="'Segoe UI', sans-serif" font-size="11" font-weight="600" fill="#1e40af">교육매니저</text>
    <text x="457" y="168" text-anchor="middle" font-family="'Segoe UI', sans-serif" font-size="10" fill="#3b82f6">(manager)</text>
    <text x="457" y="186" text-anchor="middle" font-family="'Segoe UI', sans-serif" font-size="9" fill="#64748b">강사와 동일 권한</text>
  </g>
  <g filter="url(#shadowSm)">
    <rect x="545" y="128" width="155" height="70" rx="8" fill="#eff6ff" stroke="#93c5fd" stroke-width="1"/>
    <text x="622" y="152" text-anchor="middle" font-family="'Segoe UI', sans-serif" font-size="11" font-weight="600" fill="#1e40af">교육생</text>
    <text x="622" y="168" text-anchor="middle" font-family="'Segoe UI', sans-serif" font-size="10" fill="#3b82f6">(trainee)</text>
    <text x="622" y="186" text-anchor="middle" font-family="'Segoe UI', sans-serif" font-size="9" fill="#64748b">12가지 활동 참가</text>
  </g>

  <!-- 12 Activities (2 rows of 6) -->
  <text x="50" y="218" font-family="'Segoe UI', sans-serif" font-size="10" font-weight="600" fill="#475569">12가지 교육 활동</text>
  <!-- Row 1 -->
  <rect x="50" y="226" width="112" height="30" rx="5" fill="#dbeafe" stroke="#93c5fd" stroke-width="0.5"/>
  <text x="106" y="245" text-anchor="middle" font-family="'Segoe UI', sans-serif" font-size="9" fill="#1e40af">1. 프리리딩</text>
  <rect x="168" y="226" width="112" height="30" rx="5" fill="#dbeafe" stroke="#93c5fd" stroke-width="0.5"/>
  <text x="224" y="245" text-anchor="middle" font-family="'Segoe UI', sans-serif" font-size="9" fill="#1e40af">2. 퀴즈</text>
  <rect x="286" y="226" width="112" height="30" rx="5" fill="#dbeafe" stroke="#93c5fd" stroke-width="0.5"/>
  <text x="342" y="245" text-anchor="middle" font-family="'Segoe UI', sans-serif" font-size="9" fill="#1e40af">3. 니즈 구분</text>
  <rect x="404" y="226" width="112" height="30" rx="5" fill="#dbeafe" stroke="#93c5fd" stroke-width="0.5"/>
  <text x="460" y="245" text-anchor="middle" font-family="'Segoe UI', sans-serif" font-size="9" fill="#1e40af">4. SPIN 질문구분</text>
  <rect x="522" y="226" width="112" height="30" rx="5" fill="#dbeafe" stroke="#93c5fd" stroke-width="0.5"/>
  <text x="578" y="245" text-anchor="middle" font-family="'Segoe UI', sans-serif" font-size="9" fill="#1e40af">5. 질문 연습</text>
  <rect x="640" y="226" width="112" height="30" rx="5" fill="#dbeafe" stroke="#93c5fd" stroke-width="0.5"/>
  <text x="696" y="245" text-anchor="middle" font-family="'Segoe UI', sans-serif" font-size="9" fill="#1e40af">6. SPIN질문&amp;니즈</text>
  <!-- Row 2 -->
  <rect x="50" y="262" width="112" height="30" rx="5" fill="#dbeafe" stroke="#93c5fd" stroke-width="0.5"/>
  <text x="106" y="281" text-anchor="middle" font-family="'Segoe UI', sans-serif" font-size="9" fill="#1e40af">7. FAB/BAF</text>
  <rect x="168" y="262" width="112" height="30" rx="5" fill="#dbeafe" stroke="#93c5fd" stroke-width="0.5"/>
  <text x="224" y="281" text-anchor="middle" font-family="'Segoe UI', sans-serif" font-size="9" fill="#1e40af">8. 롤플레이</text>
  <rect x="286" y="262" width="112" height="30" rx="5" fill="#dbeafe" stroke="#93c5fd" stroke-width="0.5"/>
  <text x="342" y="281" text-anchor="middle" font-family="'Segoe UI', sans-serif" font-size="9" fill="#1e40af">9. 콜플랜 작성</text>
  <rect x="404" y="262" width="112" height="30" rx="5" fill="#dbeafe" stroke="#93c5fd" stroke-width="0.5"/>
  <text x="460" y="281" text-anchor="middle" font-family="'Segoe UI', sans-serif" font-size="9" fill="#1e40af">10. 스핀도구들</text>
  <rect x="522" y="262" width="112" height="30" rx="5" fill="#dbeafe" stroke="#93c5fd" stroke-width="0.5"/>
  <text x="578" y="281" text-anchor="middle" font-family="'Segoe UI', sans-serif" font-size="9" fill="#1e40af">11. 사전/사후 설문</text>
  <rect x="640" y="262" width="112" height="30" rx="5" fill="#dbeafe" stroke="#93c5fd" stroke-width="0.5"/>
  <text x="696" y="281" text-anchor="middle" font-family="'Segoe UI', sans-serif" font-size="9" fill="#1e40af">12. AI 분석리포트</text>

  <!-- Other pages -->
  <text x="50" y="314" font-family="'Segoe UI', sans-serif" font-size="10" font-weight="600" fill="#475569">기타 페이지</text>
  <rect x="50" y="322" width="80" height="24" rx="4" fill="#e0e7ff" stroke="#a5b4fc" stroke-width="0.5"/>
  <text x="90" y="338" text-anchor="middle" font-family="'Segoe UI', sans-serif" font-size="8" fill="#4338ca">index.html</text>
  <rect x="136" y="322" width="88" height="24" rx="4" fill="#e0e7ff" stroke="#a5b4fc" stroke-width="0.5"/>
  <text x="180" y="338" text-anchor="middle" font-family="'Segoe UI', sans-serif" font-size="8" fill="#4338ca">company.html</text>
  <rect x="230" y="322" width="98" height="24" rx="4" fill="#e0e7ff" stroke="#a5b4fc" stroke-width="0.5"/>
  <text x="279" y="338" text-anchor="middle" font-family="'Segoe UI', sans-serif" font-size="8" fill="#4338ca">team-setup.html</text>
  <rect x="334" y="322" width="98" height="24" rx="4" fill="#e0e7ff" stroke="#a5b4fc" stroke-width="0.5"/>
  <text x="383" y="338" text-anchor="middle" font-family="'Segoe UI', sans-serif" font-size="8" fill="#4338ca">scoreboard.html</text>
  <rect x="438" y="322" width="88" height="24" rx="4" fill="#e0e7ff" stroke="#a5b4fc" stroke-width="0.5"/>
  <text x="482" y="338" text-anchor="middle" font-family="'Segoe UI', sans-serif" font-size="8" fill="#4338ca">coaching.html</text>
  <rect x="532" y="322" width="88" height="24" rx="4" fill="#e0e7ff" stroke="#a5b4fc" stroke-width="0.5"/>
  <text x="576" y="338" text-anchor="middle" font-family="'Segoe UI', sans-serif" font-size="8" fill="#4338ca">ontology.html</text>
  <rect x="626" y="322" width="80" height="24" rx="4" fill="#e0e7ff" stroke="#a5b4fc" stroke-width="0.5"/>
  <text x="666" y="338" text-anchor="middle" font-family="'Segoe UI', sans-serif" font-size="8" fill="#4338ca">admin.html</text>
  <rect x="712" y="322" width="66" height="24" rx="4" fill="#e0e7ff" stroke="#a5b4fc" stroke-width="0.5"/>
  <text x="745" y="338" text-anchor="middle" font-family="'Segoe UI', sans-serif" font-size="8" fill="#4338ca">manual.html</text>

  <!-- Tech badge -->
  <rect x="50" y="358" width="160" height="20" rx="4" fill="#0a2240"/>
  <text x="130" y="372" text-anchor="middle" font-family="'Segoe UI', sans-serif" font-size="9" fill="#ffffff">HTML5 / CSS3 / JS ES6+</text>
  <rect x="218" y="358" width="160" height="20" rx="4" fill="#0a2240"/>
  <text x="298" y="372" text-anchor="middle" font-family="'Segoe UI', sans-serif" font-size="9" fill="#ffffff">Korn Ferry 테마 #0a2240</text>

  <!-- ============================================================ -->
  <!-- LAYER 2: SERVER (Supabase + APIs) -->
  <!-- ============================================================ -->
  <g filter="url(#shadow)">
    <rect x="30" y="420" width="760" height="195" rx="10" fill="#ffffff" stroke="#bbf7d0" stroke-width="1"/>
    <rect x="30" y="420" width="760" height="36" rx="10" fill="url(#headerServer)"/>
    <rect x="30" y="446" width="760" height="10" fill="url(#headerServer)"/>
    <text x="56" y="444" font-family="'Segoe UI', sans-serif" font-size="14" font-weight="600" fill="#ffffff">서버 계층 &#8212; Supabase Backend + AI APIs</text>
  </g>

  <!-- Supabase REST API -->
  <g filter="url(#shadowSm)">
    <rect x="50" y="468" width="200" height="80" rx="8" fill="#f0fdf4" stroke="#86efac" stroke-width="1"/>
    <text x="150" y="492" text-anchor="middle" font-family="'Segoe UI', sans-serif" font-size="12" font-weight="600" fill="#15803d">Supabase REST API</text>
    <text x="150" y="510" text-anchor="middle" font-family="'Segoe UI', sans-serif" font-size="9" fill="#475569">CRUD 작업</text>
    <text x="150" y="524" text-anchor="middle" font-family="'Segoe UI', sans-serif" font-size="9" fill="#475569">인증 / RLS 정책</text>
    <text x="150" y="538" text-anchor="middle" font-family="'Segoe UI', sans-serif" font-size="9" fill="#475569">실시간 구독</text>
  </g>

  <!-- Edge Functions -->
  <g filter="url(#shadowSm)">
    <rect x="270" y="468" width="240" height="80" rx="8" fill="#f0fdf4" stroke="#86efac" stroke-width="1"/>
    <text x="390" y="492" text-anchor="middle" font-family="'Segoe UI', sans-serif" font-size="12" font-weight="600" fill="#15803d">Supabase Edge Functions</text>
    <rect x="285" y="502" width="100" height="22" rx="4" fill="#dcfce7" stroke="#86efac" stroke-width="0.5"/>
    <text x="335" y="517" text-anchor="middle" font-family="'Segoe UI', sans-serif" font-size="9" fill="#166534">send-email</text>
    <rect x="395" y="502" width="100" height="22" rx="4" fill="#dcfce7" stroke="#86efac" stroke-width="0.5"/>
    <text x="445" y="517" text-anchor="middle" font-family="'Segoe UI', sans-serif" font-size="9" fill="#166534">AI 평가 (OpenAI)</text>
    <text x="390" y="542" text-anchor="middle" font-family="'Segoe UI', sans-serif" font-size="9" fill="#475569">Resend API / OpenAI 연동</text>
  </g>

  <!-- Gemini API -->
  <g filter="url(#shadowSm)">
    <rect x="530" y="468" width="240" height="80" rx="8" fill="#f0fdf4" stroke="#86efac" stroke-width="1"/>
    <text x="650" y="492" text-anchor="middle" font-family="'Segoe UI', sans-serif" font-size="12" font-weight="600" fill="#15803d">Google Gemini API</text>
    <text x="650" y="510" text-anchor="middle" font-family="'Segoe UI', sans-serif" font-size="9" fill="#475569">Gemini 2.0 Flash</text>
    <text x="650" y="524" text-anchor="middle" font-family="'Segoe UI', sans-serif" font-size="9" fill="#475569">AI 챗봇 (직접 호출)</text>
    <text x="650" y="538" text-anchor="middle" font-family="'Segoe UI', sans-serif" font-size="9" fill="#475569">실시간 질의응답</text>
  </g>

  <!-- Auth note -->
  <rect x="50" y="560" width="200" height="20" rx="4" fill="#0a2240"/>
  <text x="150" y="574" text-anchor="middle" font-family="'Segoe UI', sans-serif" font-size="9" fill="#ffffff">Supabase Auth (세션 기반)</text>
  <rect x="270" y="560" width="240" height="20" rx="4" fill="#0a2240"/>
  <text x="390" y="574" text-anchor="middle" font-family="'Segoe UI', sans-serif" font-size="9" fill="#ffffff">Deno Runtime (Edge Functions)</text>
  <rect x="530" y="560" width="240" height="20" rx="4" fill="#0a2240"/>
  <text x="650" y="574" text-anchor="middle" font-family="'Segoe UI', sans-serif" font-size="9" fill="#ffffff">브라우저에서 직접 API 호출</text>

  <!-- ============================================================ -->
  <!-- LAYER 3: DATA -->
  <!-- ============================================================ -->
  <g filter="url(#shadow)">
    <rect x="30" y="650" width="520" height="195" rx="10" fill="#ffffff" stroke="#fde68a" stroke-width="1"/>
    <rect x="30" y="650" width="520" height="36" rx="10" fill="url(#headerData)"/>
    <rect x="30" y="676" width="520" height="10" fill="url(#headerData)"/>
    <text x="56" y="674" font-family="'Segoe UI', sans-serif" font-size="14" font-weight="600" fill="#ffffff">데이터 계층 &#8212; PostgreSQL (Supabase)</text>
  </g>

  <!-- Tables -->
  <g filter="url(#shadowSm)">
    <rect x="50" y="698" width="155" height="80" rx="8" fill="#fffbeb" stroke="#fcd34d" stroke-width="1"/>
    <text x="127" y="720" text-anchor="middle" font-family="'Segoe UI', sans-serif" font-size="11" font-weight="600" fill="#92400e">spin_sessions</text>
    <line x1="65" y1="726" x2="190" y2="726" stroke="#fcd34d" stroke-width="0.5"/>
    <text x="127" y="742" text-anchor="middle" font-family="'Segoe UI', sans-serif" font-size="9" fill="#78716c">교육 세션 정보</text>
    <text x="127" y="756" text-anchor="middle" font-family="'Segoe UI', sans-serif" font-size="9" fill="#78716c">날짜, 강사, 상태</text>
    <text x="127" y="770" text-anchor="middle" font-family="'Segoe UI', sans-serif" font-size="9" fill="#78716c">활동 설정</text>
  </g>
  <g filter="url(#shadowSm)">
    <rect x="220" y="698" width="155" height="80" rx="8" fill="#fffbeb" stroke="#fcd34d" stroke-width="1"/>
    <text x="297" y="720" text-anchor="middle" font-family="'Segoe UI', sans-serif" font-size="11" font-weight="600" fill="#92400e">spin_members</text>
    <line x1="235" y1="726" x2="360" y2="726" stroke="#fcd34d" stroke-width="0.5"/>
    <text x="297" y="742" text-anchor="middle" font-family="'Segoe UI', sans-serif" font-size="9" fill="#78716c">교육생 정보</text>
    <text x="297" y="756" text-anchor="middle" font-family="'Segoe UI', sans-serif" font-size="9" fill="#78716c">이름, 이메일, 팀</text>
    <text x="297" y="770" text-anchor="middle" font-family="'Segoe UI', sans-serif" font-size="9" fill="#78716c">역할, 세션 매핑</text>
  </g>
  <g filter="url(#shadowSm)">
    <rect x="390" y="698" width="155" height="80" rx="8" fill="#fffbeb" stroke="#fcd34d" stroke-width="1"/>
    <text x="467" y="720" text-anchor="middle" font-family="'Segoe UI', sans-serif" font-size="11" font-weight="600" fill="#92400e">spin_activities</text>
    <line x1="405" y1="726" x2="530" y2="726" stroke="#fcd34d" stroke-width="0.5"/>
    <text x="467" y="742" text-anchor="middle" font-family="'Segoe UI', sans-serif" font-size="9" fill="#78716c">활동 결과 데이터</text>
    <text x="467" y="756" text-anchor="middle" font-family="'Segoe UI', sans-serif" font-size="9" fill="#78716c">점수, 답변, 시간</text>
    <text x="467" y="770" text-anchor="middle" font-family="'Segoe UI', sans-serif" font-size="9" fill="#78716c">AI 평가 결과</text>
  </g>

  <!-- DB Tech -->
  <rect x="50" y="792" width="155" height="20" rx="4" fill="#0a2240"/>
  <text x="127" y="806" text-anchor="middle" font-family="'Segoe UI', sans-serif" font-size="9" fill="#ffffff">Row Level Security</text>
  <rect x="220" y="792" width="155" height="20" rx="4" fill="#0a2240"/>
  <text x="297" y="806" text-anchor="middle" font-family="'Segoe UI', sans-serif" font-size="9" fill="#ffffff">Foreign Key 관계</text>
  <rect x="390" y="792" width="155" height="20" rx="4" fill="#0a2240"/>
  <text x="467" y="806" text-anchor="middle" font-family="'Segoe UI', sans-serif" font-size="9" fill="#ffffff">JSON 컬럼 지원</text>

  <!-- ============================================================ -->
  <!-- EXTERNAL SERVICES -->
  <!-- ============================================================ -->
  <g filter="url(#shadow)">
    <rect x="580" y="650" width="590" height="195" rx="10" fill="#ffffff" stroke="#c4b5fd" stroke-width="1"/>
    <rect x="580" y="650" width="590" height="36" rx="10" fill="url(#headerExt)"/>
    <rect x="580" y="676" width="590" height="10" fill="url(#headerExt)"/>
    <text x="606" y="674" font-family="'Segoe UI', sans-serif" font-size="14" font-weight="600" fill="#ffffff">외부 서비스</text>
  </g>

  <g filter="url(#shadowSm)">
    <rect x="600" y="698" width="130" height="65" rx="8" fill="#f5f3ff" stroke="#c4b5fd" stroke-width="1"/>
    <text x="665" y="720" text-anchor="middle" font-family="'Segoe UI', sans-serif" font-size="11" font-weight="600" fill="#6d28d9">Vercel</text>
    <text x="665" y="738" text-anchor="middle" font-family="'Segoe UI', sans-serif" font-size="9" fill="#7c3aed">메인 배포</text>
    <text x="665" y="752" text-anchor="middle" font-family="'Segoe UI', sans-serif" font-size="9" fill="#7c3aed">CDN / HTTPS</text>
  </g>
  <g filter="url(#shadowSm)">
    <rect x="740" y="698" width="130" height="65" rx="8" fill="#f5f3ff" stroke="#c4b5fd" stroke-width="1"/>
    <text x="805" y="720" text-anchor="middle" font-family="'Segoe UI', sans-serif" font-size="11" font-weight="600" fill="#6d28d9">GitHub Pages</text>
    <text x="805" y="738" text-anchor="middle" font-family="'Segoe UI', sans-serif" font-size="9" fill="#7c3aed">백업 배포</text>
    <text x="805" y="752" text-anchor="middle" font-family="'Segoe UI', sans-serif" font-size="9" fill="#7c3aed">정적 호스팅</text>
  </g>
  <g filter="url(#shadowSm)">
    <rect x="880" y="698" width="130" height="65" rx="8" fill="#f5f3ff" stroke="#c4b5fd" stroke-width="1"/>
    <text x="945" y="720" text-anchor="middle" font-family="'Segoe UI', sans-serif" font-size="11" font-weight="600" fill="#6d28d9">Resend API</text>
    <text x="945" y="738" text-anchor="middle" font-family="'Segoe UI', sans-serif" font-size="9" fill="#7c3aed">이메일 발송</text>
    <text x="945" y="752" text-anchor="middle" font-family="'Segoe UI', sans-serif" font-size="9" fill="#7c3aed">Edge Function 연동</text>
  </g>
  <g filter="url(#shadowSm)">
    <rect x="1020" y="698" width="130" height="65" rx="8" fill="#f5f3ff" stroke="#c4b5fd" stroke-width="1"/>
    <text x="1085" y="720" text-anchor="middle" font-family="'Segoe UI', sans-serif" font-size="11" font-weight="600" fill="#6d28d9">Google Gemini</text>
    <text x="1085" y="738" text-anchor="middle" font-family="'Segoe UI', sans-serif" font-size="9" fill="#7c3aed">AI 챗봇</text>
    <text x="1085" y="752" text-anchor="middle" font-family="'Segoe UI', sans-serif" font-size="9" fill="#7c3aed">2.0 Flash 모델</text>
  </g>

  <!-- OpenAI box -->
  <g filter="url(#shadowSm)">
    <rect x="600" y="774" width="130" height="50" rx="8" fill="#f5f3ff" stroke="#c4b5fd" stroke-width="1"/>
    <text x="665" y="796" text-anchor="middle" font-family="'Segoe UI', sans-serif" font-size="11" font-weight="600" fill="#6d28d9">OpenAI API</text>
    <text x="665" y="814" text-anchor="middle" font-family="'Segoe UI', sans-serif" font-size="9" fill="#7c3aed">롤플레이/콜플랜 평가</text>
  </g>
  <g filter="url(#shadowSm)">
    <rect x="740" y="774" width="130" height="50" rx="8" fill="#f5f3ff" stroke="#c4b5fd" stroke-width="1"/>
    <text x="805" y="796" text-anchor="middle" font-family="'Segoe UI', sans-serif" font-size="11" font-weight="600" fill="#6d28d9">GitHub</text>
    <text x="805" y="814" text-anchor="middle" font-family="'Segoe UI', sans-serif" font-size="9" fill="#7c3aed">소스 코드 저장소</text>
  </g>

  <!-- ============================================================ -->
  <!-- RIGHT SIDE: Deployment box -->
  <!-- ============================================================ -->
  <g filter="url(#shadow)">
    <rect x="820" y="80" width="350" height="310" rx="10" fill="#ffffff" stroke="#c4b5fd" stroke-width="1"/>
    <rect x="820" y="80" width="350" height="36" rx="10" fill="#0a2240"/>
    <rect x="820" y="106" width="350" height="10" fill="#0a2240"/>
    <text x="995" y="104" text-anchor="middle" font-family="'Segoe UI', sans-serif" font-size="14" font-weight="600" fill="#ffffff">기술 스택 요약</text>
  </g>

  <!-- Tech stack items -->
  <text x="840" y="140" font-family="'Segoe UI', sans-serif" font-size="10" font-weight="600" fill="#0a2240">프론트엔드</text>
  <rect x="840" y="148" width="310" height="24" rx="4" fill="#eff6ff" stroke="#bfdbfe" stroke-width="0.5"/>
  <text x="995" y="164" text-anchor="middle" font-family="'Segoe UI', sans-serif" font-size="9" fill="#1e40af">HTML5 + CSS3 + JavaScript ES6+ (Vanilla, 프레임워크 없음)</text>

  <text x="840" y="192" font-family="'Segoe UI', sans-serif" font-size="10" font-weight="600" fill="#0a2240">백엔드</text>
  <rect x="840" y="200" width="310" height="24" rx="4" fill="#f0fdf4" stroke="#bbf7d0" stroke-width="0.5"/>
  <text x="995" y="216" text-anchor="middle" font-family="'Segoe UI', sans-serif" font-size="9" fill="#15803d">Supabase (PostgreSQL + REST API + Edge Functions + Auth)</text>

  <text x="840" y="244" font-family="'Segoe UI', sans-serif" font-size="10" font-weight="600" fill="#0a2240">AI 엔진</text>
  <rect x="840" y="252" width="150" height="24" rx="4" fill="#f5f3ff" stroke="#c4b5fd" stroke-width="0.5"/>
  <text x="915" y="268" text-anchor="middle" font-family="'Segoe UI', sans-serif" font-size="9" fill="#6d28d9">Google Gemini 2.0 Flash</text>
  <rect x="1000" y="252" width="150" height="24" rx="4" fill="#f5f3ff" stroke="#c4b5fd" stroke-width="0.5"/>
  <text x="1075" y="268" text-anchor="middle" font-family="'Segoe UI', sans-serif" font-size="9" fill="#6d28d9">OpenAI (Edge Fn)</text>

  <text x="840" y="296" font-family="'Segoe UI', sans-serif" font-size="10" font-weight="600" fill="#0a2240">배포</text>
  <rect x="840" y="304" width="150" height="24" rx="4" fill="#f5f3ff" stroke="#c4b5fd" stroke-width="0.5"/>
  <text x="915" y="320" text-anchor="middle" font-family="'Segoe UI', sans-serif" font-size="9" fill="#6d28d9">Vercel (메인)</text>
  <rect x="1000" y="304" width="150" height="24" rx="4" fill="#f5f3ff" stroke="#c4b5fd" stroke-width="0.5"/>
  <text x="1075" y="320" text-anchor="middle" font-family="'Segoe UI', sans-serif" font-size="9" fill="#6d28d9">GitHub Pages (백업)</text>

  <text x="840" y="348" font-family="'Segoe UI', sans-serif" font-size="10" font-weight="600" fill="#0a2240">이메일</text>
  <rect x="840" y="356" width="310" height="24" rx="4" fill="#f5f3ff" stroke="#c4b5fd" stroke-width="0.5"/>
  <text x="995" y="372" text-anchor="middle" font-family="'Segoe UI', sans-serif" font-size="9" fill="#6d28d9">Resend API via Supabase Edge Function</text>

  <!-- ============================================================ -->
  <!-- ARROWS: Client -> Server -->
  <!-- ============================================================ -->
  <!-- Browser to REST API -->
  <path d="M 150 390 L 150 398 Q 150 408 150 408 L 150 462" fill="none" stroke="#2563eb" stroke-width="2" stroke-dasharray="6,3" marker-end="url(#arrowBlue)"/>
  <text x="155" y="410" font-family="'Segoe UI', sans-serif" font-size="8" fill="#2563eb">HTTP / REST</text>

  <!-- Browser to Edge Functions -->
  <path d="M 390 390 L 390 462" fill="none" stroke="#2563eb" stroke-width="2" stroke-dasharray="6,3" marker-end="url(#arrowBlue)"/>
  <text x="395" y="410" font-family="'Segoe UI', sans-serif" font-size="8" fill="#2563eb">Edge Function 호출</text>

  <!-- Browser to Gemini -->
  <path d="M 650 390 L 650 462" fill="none" stroke="#2563eb" stroke-width="2" stroke-dasharray="6,3" marker-end="url(#arrowBlue)"/>
  <text x="655" y="410" font-family="'Segoe UI', sans-serif" font-size="8" fill="#2563eb">직접 API 호출</text>

  <!-- ============================================================ -->
  <!-- ARROWS: Server -> Data -->
  <!-- ============================================================ -->
  <path d="M 150 590 L 150 598 Q 150 608 150 618 L 150 644" fill="none" stroke="#16a34a" stroke-width="2" stroke-dasharray="6,3" marker-end="url(#arrowGreen)"/>
  <text x="155" y="628" font-family="'Segoe UI', sans-serif" font-size="8" fill="#16a34a">SQL 쿼리</text>

  <path d="M 390 590 L 390 598 Q 390 608 340 628 L 297 644" fill="none" stroke="#16a34a" stroke-width="2" stroke-dasharray="6,3" marker-end="url(#arrowGreen)"/>
  <text x="360" y="628" font-family="'Segoe UI', sans-serif" font-size="8" fill="#16a34a">데이터 저장</text>

  <!-- ============================================================ -->
  <!-- ARROWS: Server -> External -->
  <!-- ============================================================ -->
  <!-- Edge Fn to Resend -->
  <path d="M 510 530 Q 700 590 945 692" fill="none" stroke="#7c3aed" stroke-width="1.5" stroke-dasharray="4,3" marker-end="url(#arrowPurple)"/>

  <!-- Edge Fn to OpenAI -->
  <path d="M 440 555 Q 540 660 665 692" fill="none" stroke="#7c3aed" stroke-width="1.5" stroke-dasharray="4,3" marker-end="url(#arrowPurple)"/>

  <!-- Gemini connection -->
  <path d="M 710 540 Q 900 610 1085 692" fill="none" stroke="#7c3aed" stroke-width="1.5" stroke-dasharray="4,3" marker-end="url(#arrowPurple)"/>

  <!-- ============================================================ -->
  <!-- ARROWS: Right side deployment connections -->
  <!-- ============================================================ -->
  <path d="M 820 420 Q 870 420 920 420 L 920 460 Q 920 470 910 470 L 790 500" fill="none" stroke="#16a34a" stroke-width="1.5" stroke-dasharray="4,3" opacity="0" />

  <!-- ============================================================ -->
  <!-- DATA FLOW LEGEND -->
  <!-- ============================================================ -->
  <g transform="translate(820, 420)">
    <g filter="url(#shadow)">
      <rect width="350" height="195" rx="10" fill="#ffffff" stroke="#e2e8f0" stroke-width="1"/>
      <rect width="350" height="36" rx="10" fill="#0a2240"/>
      <rect y="26" width="350" height="10" fill="#0a2240"/>
      <text x="175" y="24" text-anchor="middle" font-family="'Segoe UI', sans-serif" font-size="14" font-weight="600" fill="#ffffff">데이터 흐름</text>
    </g>

    <!-- Legend items -->
    <line x1="20" y1="58" x2="70" y2="58" stroke="#2563eb" stroke-width="2" stroke-dasharray="6,3"/>
    <polygon points="70,55 78,58 70,61" fill="#2563eb"/>
    <text x="88" y="62" font-family="'Segoe UI', sans-serif" font-size="10" fill="#334155">클라이언트 → 서버 (HTTP 요청)</text>

    <line x1="20" y1="84" x2="70" y2="84" stroke="#16a34a" stroke-width="2" stroke-dasharray="6,3"/>
    <polygon points="70,81 78,84 70,87" fill="#16a34a"/>
    <text x="88" y="88" font-family="'Segoe UI', sans-serif" font-size="10" fill="#334155">서버 → 데이터베이스 (SQL)</text>

    <line x1="20" y1="110" x2="70" y2="110" stroke="#7c3aed" stroke-width="1.5" stroke-dasharray="4,3"/>
    <polygon points="70,107 78,110 70,113" fill="#7c3aed"/>
    <text x="88" y="114" font-family="'Segoe UI', sans-serif" font-size="10" fill="#334155">서버 → 외부 서비스 (API)</text>

    <!-- Color legend -->
    <text x="20" y="144" font-family="'Segoe UI', sans-serif" font-size="10" font-weight="600" fill="#475569">색상 범례</text>
    <rect x="20" y="152" width="14" height="14" rx="3" fill="#2563eb"/>
    <text x="40" y="164" font-family="'Segoe UI', sans-serif" font-size="9" fill="#334155">프론트엔드</text>
    <rect x="100" y="152" width="14" height="14" rx="3" fill="#16a34a"/>
    <text x="120" y="164" font-family="'Segoe UI', sans-serif" font-size="9" fill="#334155">백엔드</text>
    <rect x="170" y="152" width="14" height="14" rx="3" fill="#d97706"/>
    <text x="190" y="164" font-family="'Segoe UI', sans-serif" font-size="9" fill="#334155">데이터베이스</text>
    <rect x="260" y="152" width="14" height="14" rx="3" fill="#7c3aed"/>
    <text x="280" y="164" font-family="'Segoe UI', sans-serif" font-size="9" fill="#334155">외부 서비스</text>
  </g>

  <!-- Footer -->
  <text x="600" y="900" text-anchor="middle" font-family="'Segoe UI', sans-serif" font-size="10" fill="#94a3b8">SPIN Selling AI 교육 플랫폼 | Korn Ferry | Architecture Diagram v1.0</text>
</svg>